<?xml version="1.0" encoding="utf-8"?>
<!-- Generator: Adobe Illustrator 21.0.0, SVG Export Plug-In . SVG Version: 6.00 Build 0)  -->
<svg version="1.1" id="Layer_1" xmlns="http://www.w3.org/2000/svg" xmlns:xlink="http://www.w3.org/1999/xlink" x="0px" y="0px"
	 viewBox="0 0 132 93.2" style="enable-background:new 0 0 132 93.2;" xml:space="preserve">
<style type="text/css">
	.st0{fill:#11173E;}
	.st1{fill:#11343D;}
	.st2{fill:#FFFFFF;}
	.st3{fill:#4C2818;}
	.st4{fill:#871740;}
	.st5{fill:#F9F9FA;}
</style>
<g>
	<path class="st0" d="M47,37.8l-3.9,5.5l-2.4,3.4l-2,2.8c-1.3-1.9-2.6-3.7-3.9-5.6C24.5,29.4,14.2,14.7,3.9,0C5.6,0.6,7.3,1.3,9,1.9
		h0l27.8,39.3c0.8-1.1,1.6-2.3,2.4-3.4L15.6,4.4c3.5,1.3,7.1,2.7,10.7,4c5.6,7.9,11.2,15.9,16.8,23.8C44.4,34.1,45.7,35.9,47,37.8z"
		/>
	<path class="st1" d="M47.5,49.6c-0.8,1.1-1.6,2.3-2.4,3.4l23.7,33.5c-1.9-0.7-3.7-1.3-5.6-2C57.8,76.9,52.4,69.2,47,61.5
		c-1.3-1.8-2.6-3.7-3.9-5.6h0l-2-2.9c0.7-1,1.4-1.9,2-2.9c0.8-1.1,1.6-2.3,2.4-3.4c1.3-1.9,2.6-3.7,3.9-5.5c0.7,0.9,1.3,1.9,2,2.8
		c11.5,16.2,22.9,32.4,34.4,48.6c-3.5-1.3-7-2.5-10.5-3.8L47.5,49.6z"/>
	<path class="st2" d="M43.1,43.3l-2.4,3.4l-3.9-5.5c0.8-1.1,1.6-2.3,2.4-3.4L43.1,43.3z"/>
	<path class="st2" d="M47.5,49.6c-0.8,1.1-1.6,2.3-2.4,3.4l-2-2.8c0.8-1.1,1.6-2.3,2.4-3.4L47.5,49.6z"/>
	<path class="st3" d="M33.9,50.2L4.6,91.5c-1.6,0.5-3.1,1.1-4.6,1.7c10.7-15.1,21.4-30.3,32.1-45.5L33.9,50.2z"/>
	<path class="st3" d="M40.5,59.6c-6,8.5-12,17-17.9,25.5c-4.9,1.7-9.7,3.5-14.6,5.2L35.1,52L40.5,59.6z"/>
	<path class="st4" d="M81.9,0.6C71.8,15.1,61.6,29.5,51.4,44c-1.3,1.8-2.6,3.7-3.9,5.6c-0.8,1.1-1.6,2.3-2.4,3.4
		c-0.7,1-1.3,1.9-2,2.9h0l-2-2.9c0.7-1,1.4-1.9,2-2.9c0.8-1.1,1.6-2.3,2.4-3.4c1.3-1.9,2.6-3.7,3.9-5.5
		c8.2-11.6,16.4-23.1,24.6-34.7c-2.4,1-4.7,2-7.1,3L47,37.8l-3.9,5.5l-2.4,3.4l-2,2.8l0,0l-3.9-5.5c0,0,0,0,0,0
		c0.7-0.9,1.3-1.9,2-2.8c0.8-1.1,1.6-2.3,2.4-3.4c1.3-1.9,2.6-3.7,3.9-5.5c5.5-7.7,11-15.5,16.4-23.2C67,6.2,74.5,3.4,81.9,0.6z"/>
	<path class="st5" d="M47,61.5L47,61.5c-1.3-1.8-2.6-3.7-3.9-5.5L47,61.5z"/>
	<path class="st2" d="M83.5,26.4"/>
	<path class="st0" d="M60.6,53.7v-0.9l1.8-0.6c0.1,0,0.2-0.1,0.3-0.2c0.1-0.1,0.1-0.2,0.1-0.4V38.6c0-0.2,0-0.3-0.1-0.4
		s-0.2-0.2-0.3-0.2l-1.8-0.6v-0.9h6.9c1.7,0,3,0.2,3.9,0.5c0.9,0.4,1.5,0.8,1.9,1.4c0.3,0.6,0.5,1.2,0.5,1.9c0,1.1-0.3,2-1,2.7
		c-0.7,0.7-1.5,1.2-2.7,1.5v0.1c0.9,0,1.7,0.2,2.5,0.6c0.7,0.3,1.3,0.8,1.7,1.4s0.6,1.3,0.6,2.1c0,1-0.2,1.8-0.6,2.5
		s-0.9,1.1-1.6,1.5c-0.7,0.4-1.4,0.6-2.3,0.8c-0.8,0.2-1.7,0.2-2.6,0.2H60.6z M65.4,38v6.2h1.2c1.7,0,2.8-0.3,3.5-0.8
		c0.6-0.5,1-1.2,1-2.1c0-1.2-0.3-2-0.9-2.6c-0.6-0.5-1.6-0.8-3-0.8H65.4z M65.4,45.6v6.7h2.7c1.3,0,2.3-0.2,3-0.7s1-1.3,1-2.4
		c0-1.3-0.3-2.2-1-2.8c-0.7-0.5-1.9-0.8-3.5-0.8H65.4z"/>
	<path class="st4" d="M76.1,53.7v-0.9l1.2-0.5c0.3-0.1,0.5-0.4,0.6-0.7l4.9-12.5l1.4-2.9h1.4l6.1,15.4c0.1,0.1,0.1,0.3,0.2,0.4
		c0.1,0.1,0.2,0.2,0.3,0.3l1.3,0.5v0.9h-6.4v-0.9l2-0.7l-4.3-11l-0.5-1.6h-0.2l-4.7,12.6l2,0.8v0.9H76.1z M80.9,47.7l0.6-1.7H87
		l0.6,1.7H80.9z"/>
	<path class="st1" d="M94.8,53.7v-0.9l1.8-0.7c0.1,0,0.2-0.1,0.3-0.2s0.1-0.2,0.1-0.4v-13c0-0.2,0-0.3-0.1-0.4
		c-0.1-0.1-0.2-0.2-0.3-0.2l-1.9-0.6v-0.9h4.9l8.3,11.9l0.9,1.5h0.2V38.6c0-0.2,0-0.3-0.1-0.4c-0.1-0.1-0.2-0.1-0.3-0.2l-1.8-0.7
		v-0.9h6.2v0.9l-1.8,0.7c-0.1,0-0.2,0.1-0.3,0.2s-0.2,0.2-0.2,0.4v12.4l-0.4,2.8h-1.4L99.8,41l-0.9-1.6h-0.2v12.2
		c0,0.2,0,0.3,0.1,0.4c0.1,0.1,0.2,0.2,0.3,0.2l1.8,0.7v0.9H94.8z"/>
	<path class="st3" d="M115.4,53.7v-0.9l1.8-0.6c0.1,0,0.2-0.1,0.3-0.2c0.1-0.1,0.1-0.2,0.1-0.4V38.6c0-0.2,0-0.3-0.1-0.4
		c-0.1-0.1-0.2-0.2-0.3-0.2l-1.8-0.6v-0.9h7.1v0.9l-1.8,0.6c-0.1,0-0.2,0.1-0.3,0.2s-0.1,0.2-0.1,0.4v6.8L127,38l-1.1-0.6v-0.9h5.6
		v0.9l-1.9,0.6c-0.2,0-0.3,0.1-0.5,0.2c-0.2,0.1-0.3,0.2-0.5,0.4l-4.9,5.2l5.8,7.7c0.1,0.1,0.2,0.3,0.4,0.4c0.2,0.2,0.3,0.3,0.5,0.3
		l1.7,0.6v0.9h-6v-0.9l1-0.6l-5-6.8l-1.7,1v5.2c0,0.2,0,0.3,0.1,0.4c0.1,0.1,0.2,0.2,0.3,0.2l1.8,0.6v0.9H115.4z"/>
</g>
</svg>
